PathFileType	4	(X/Y/Z)	../Python\walking\Walking11\task.trc
DataRate	CameraRate	NumFrames	NumMarkers	Units	OrigDataRate	OrigDataStartFrame	OrigNumFrames
200.000000	200.000000	5	30	mm	200.000000	0	512
Frame#	Time	CLAV			STRN			RASI			LASI			RTH1			RTH2			RTH3			RTB1			RTB2			RTB3			RD5M			RTOE			LTH1			LTH2			LTH3			LTB1			LTB2			LTB3			LTOE			LD5M			PE03			PE02			RPSI			LPSI			T10			LHEE			C7			RHEE			RBAK			PE01			
		X1	Y1	Z1	X2	Y2	Z2	X3	Y3	Z3	X4	Y4	Z4	X5	Y5	Z5	X6	Y6	Z6	X7	Y7	Z7	X8	Y8	Z8	X9	Y9	Z9	X10	Y10	Z10	X11	Y11	Z11	X12	Y12	Z12	X13	Y13	Z13	X14	Y14	Z14	X15	Y15	Z15	X16	Y16	Z16	X17	Y17	Z17	X18	Y18	Z18	X19	Y19	Z19	X20	Y20	Z20	X21	Y21	Z21	X22	Y22	Z22	X23	Y23	Z23	X24	Y24	Z24	X25	Y25	Z25	X26	Y26	Z26	X27	Y27	Z27	X28	Y28	Z28	X29	Y29	Z29	X30	Y30	Z30	

1	0	-445.1647644042971	1439.524780273438	203.3049468994142	-390.008728027344	1247.826416015625	221.028778076172	-434.8367309570315	1039.165893554688	371.7356262207032	-405.2454833984377	1023.409973144532	102.1968078613282	-489.641784667969	771.3937377929692	397.6603698730471	-548.5904541015627	752.1317138671877	392.9967346191409	-531.7188110351565	707.2497558593752	377.6301879882814	-557.6331176757815	366.1477966308595	316.4044494628907	-605.5921020507815	327.4418945312501	317.2023925781251	-573.446960449219	290.3392639160157	303.446990966797	-533.525817871094	12.92312622070313	296.814178466797	-471.7749633789065	29.19669342041017	252.0992126464845	-382.0149230957032	725.6403808593752	60.61315536499026	-389.3402404785159	679.1151123046877	77.96498870849612	-328.6151733398439	668.6763305664065	72.83666992187503	-343.5542297363282	403.4141540527346	89.07685852050784	-381.6031799316407	373.1707458496095	101.5971374511719	-343.2473449707032	324.871795654297	94.40263366699222	-280.2527465820314	50.61086273193362	133.6495208740235	-323.7055664062501	42.83222961425783	97.74222564697271	-589.4508056640627	1062.688598632813	194.5617675781251	-591.2485961914065	1065.605102539063	245.3879852294923	-587.3796997070315	1079.093505859375	268.0990295410157	-581.4965820312502	1074.320556640625	168.7810363769532	-619.5073242187502	1267.006591796875	203.025360107422	-477.7154846191409	93.54759216308597	164.9393920898438	-564.4385375976565	1527.797607421875	185.8516693115235	-688.0642700195315	31.24779701232912	208.6623535156251	-585.6587524414065	1448.904418945313	362.6804504394532	-575.7639770507815	1123.599243164063	216.8164672851564	
2	0.005	-438.7463378906252	1438.9248046875	203.5778961181642	-383.9073486328126	1247.163940429688	221.3687286376954	-429.2531433105471	1038.4169921875	371.7893371582032	-399.1133117675784	1023.03662109375	102.2905883789063	-485.2497253417971	770.7943725585942	397.6235351562502	-544.3133544921877	751.9101562500002	392.9598388671877	-527.7613525390627	706.9356079101565	377.602508544922	-555.7476196289065	365.9903564453126	316.2224426269532	-603.957458496094	327.5803222656251	316.9783630371095	-572.0193481445315	290.2867431640626	303.2580566406251	-533.5386962890627	12.96524906158448	296.7730712890626	-471.6695251464846	29.17146492004396	252.0949554443361	-374.3382873535157	725.822692871094	60.53602218627933	-381.6801757812501	679.2730712890627	77.75932312011722	-320.8680419921876	669.0137329101565	73.24876403808597	-332.570526123047	401.3913269042971	89.72516632080081	-369.6127929687501	370.0453491210939	102.3365707397462	-329.844696044922	322.9033508300782	95.03330993652347	-258.2501831054689	50.74911117553714	134.6031494140626	-301.4193115234376	41.50743865966798	98.80143737792974	-583.4863891601565	1062.186645507813	194.3553314208986	-585.4077758789065	1065.061157226563	245.1721496582032	-581.5840454101565	1078.549926757813	267.9092712402345	-575.4690551757815	1073.822387695313	168.6117706298829	-613.4822387695315	1266.694091796875	203.4339447021486	-456.9370727539065	87.59014129638675	165.9226837158204	-557.961853027344	1527.258056640625	186.1560058593751	-687.918151855469	31.59978485107423	208.3374786376954	-579.0780029296877	1448.641845703125	363.1080627441407	-569.8547973632815	1123.075561523438	216.6779174804689	
3	0.01	-432.309997558594	1438.265747070313	203.8451538085939	-377.7869873046876	1246.440185546875	221.6911468505861	-423.6436462402346	1037.63623046875	371.8240356445314	-392.9385681152346	1022.591125488282	102.3595504760743	-480.8249816894534	770.1747436523442	397.580017089844	-540.0028076171877	751.6679687500002	392.931823730469	-523.7706298828127	706.604187011719	377.5745849609376	-553.8604125976565	365.8261718750001	316.033905029297	-602.3171997070315	327.7124328613282	316.7402343750001	-570.5858154296877	290.2290344238282	303.0537109375001	-533.5565185546877	13.01694679260255	296.7183532714845	-471.5686035156252	29.14770507812501	252.0877990722657	-366.8334350585939	725.872009277344	60.50060653686526	-374.2063598632814	679.309753417969	77.61505889892581	-313.3275451660157	669.1824340820315	73.63813018798831	-321.7143859863282	399.3225708007815	90.38562774658206	-357.6965942382814	366.890594482422	103.1082000732422	-316.5386047363282	320.9603576660157	95.63408660888675	-236.3192291259767	51.12535095214847	135.5912322998047	-279.1413574218751	40.4328079223633	99.89024353027349	-577.4916992187502	1061.625366210938	194.1303253173829	-579.542663574219	1064.467407226563	244.9369049072267	-575.7671508789065	1077.959350585938	267.6980895996095	-569.4114379882815	1073.26171875	168.4229125976563	-607.4439086914065	1266.325561523438	203.8201751708986	-436.0500183105471	81.87091827392581	166.8691406250001	-551.4692993164065	1526.663208007813	186.4549255371094	-687.7676391601565	31.95906639099123	207.9815826416017	-572.488952636719	1448.30810546875	363.523895263672	-563.9248046875002	1122.49755859375	216.5104980468751	
4	0.015	-425.8555603027346	1437.548706054688	204.1063537597657	-371.6480102539064	1245.656127929688	221.9967041015626	-418.0092773437502	1036.82421875	371.8433837890626	-386.7183227539065	1022.075561523438	102.4080505371094	-476.3661804199221	769.5339965820317	397.5296325683596	-535.6568603515627	751.4024658203127	392.9116821289065	-519.743103027344	706.2528076171877	377.5456542968751	-551.965270996094	365.6546020507814	315.8355407714845	-600.6648559570315	327.8373413085939	316.4851989746095	-569.1407470703127	290.1650390625001	302.8302001953126	-533.5800781250002	13.07910823822022	296.6482849121095	-471.4718933105471	29.12467002868654	252.077606201172	-359.5090637207032	725.7797851562502	60.50479888916018	-366.9250793457032	679.2156372070315	77.53076171875003	-305.9981079101564	669.174743652344	73.99549102783206	-310.9807434082032	397.2136840820315	91.05058288574222	-345.8535766601564	363.716033935547	103.8983840942383	-303.3307495117189	319.0515441894532	96.20429229736334	-214.4828948974611	51.75357437133792	136.6289062500001	-256.8919677734376	39.62370681762697	101.0186157226563	-571.4659423828127	1061.005615234375	193.8859863281251	-573.652770996094	1063.824096679688	244.6816711425782	-569.9289550781252	1077.321411132813	267.4649658203126	-563.3225708007815	1072.639404296875	168.2138214111329	-601.3919067382815	1265.902099609375	204.1837768554689	-415.0784912109377	76.41434478759768	167.7704467773438	-544.9607543945315	1526.014526367188	186.7476806640626	-687.6124267578127	32.32667541503908	207.5930175781251	-565.8916625976565	1447.904296875	363.9275817871095	-557.973327636719	1121.865600585938	216.3145751953126	
5	0.02	-419.3828735351565	1436.775146484375	204.3611602783204	-365.490692138672	1244.81298828125	222.2862701416017	-412.3509521484377	1035.9814453125	371.8510131835939	-380.4500122070314	1021.492126464844	102.4403457641602	-471.8724060058596	768.871215820313	397.4725036621096	-531.2740478515627	751.1111450195315	392.8981628417971	-515.6755371093752	705.8789672851565	377.5149536132814	-550.055847167969	365.4750366210939	315.6244201660157	-598.9938964843752	327.9545898437501	316.2107849121095	-567.678649902344	290.0938720703126	302.584442138672	-533.6098632812502	13.15239334106446	296.5614013671876	-471.3791198730471	29.10172080993654	252.0642852783204	-352.3739013671876	725.5366821289065	60.54538345336917	-359.8416748046876	678.9805297851565	77.50442504882815	-298.8833312988282	668.9832153320315	74.31201934814456	-300.362274169922	395.0712585449221	91.711296081543	-334.0813903808595	360.5317382812501	104.6913146972657	-290.2214355468751	317.1857299804689	96.74419403076178	-192.7658691406251	52.64737319946292	137.7307281494141	-234.6935577392579	39.09509277343751	102.1960906982422	-565.4084472656252	1060.328247070313	193.621795654297	-567.7375488281252	1063.13134765625	244.4060058593751	-564.0693359375002	1076.6357421875	267.2095642089845	-557.2016601562502	1071.956665039063	167.9840850830079	-595.3257446289065	1265.424682617188	204.5244598388673	-394.0486755371096	71.24316406250003	168.6193389892579	-538.4361572265627	1525.313232421875	187.033432006836	-687.452575683594	32.7040252685547	207.1712646484376	-559.2863769531252	1447.431884765625	364.3186950683595	-551.9996337890627	1121.180786132813	216.0906677246095	
